<svg width="565" height="111" viewBox="0 0 565 111" fill="none" xmlns="http://www.w3.org/2000/svg">
<path fill-rule="evenodd" clip-rule="evenodd" d="M69.6207 28.0104H69.5107C69.1597 28.0036 68.8241 27.8651 68.5703 27.6225C68.3166 27.3799 68.1632 27.0507 68.1407 26.7004C67.5307 19.4704 62.0007 3.43038 41.7107 2.94038C33.9207 2.76038 27.4707 5.16038 22.5607 10.0904C18.3376 14.4002 15.6314 19.9671 14.8507 25.9504C14.8282 26.2981 14.676 26.6247 14.4241 26.8654C14.1722 27.1062 13.8391 27.2436 13.4907 27.2504H13.3807C13.1876 27.247 12.9972 27.2039 12.8213 27.1238C12.6455 27.0438 12.488 26.9284 12.3586 26.785C12.2292 26.6415 12.1306 26.473 12.0691 26.2898C12.0075 26.1067 11.9843 25.9129 12.0007 25.7204C12.8378 19.0349 15.8531 12.811 20.5807 8.01038C26.0607 2.50038 33.1607 -0.189616 41.7707 0.0103835C62.1007 0.510384 70.2807 15.9204 71.0007 26.5004C71.0158 26.6916 70.9914 26.8839 70.9291 27.0653C70.8668 27.2467 70.7679 27.4133 70.6385 27.5549C70.5091 27.6965 70.352 27.81 70.1769 27.8884C70.0018 27.9667 69.8125 28.0082 69.6207 28.0104ZM40.0007 94.1404V110.01H43.0007V94.1404C58.5707 93.3604 71.0007 80.6704 71.0007 65.2104C71.0062 64.8044 70.8521 64.4124 70.5716 64.1188C70.2911 63.8252 69.9066 63.6534 69.5007 63.6404C69.2989 63.6443 69.0999 63.688 68.9151 63.7692C68.7303 63.8503 68.5634 63.9672 68.4239 64.1132C68.2845 64.2591 68.1753 64.4312 68.1027 64.6195C68.0301 64.8078 67.9954 65.0086 68.0007 65.2104C68.0007 79.4604 56.1107 91.0604 41.5007 91.0604C26.8907 91.0604 15.0007 79.4604 15.0007 65.2104C15.0252 64.9988 15.0046 64.7845 14.9404 64.5815C14.8762 64.3785 14.7698 64.1913 14.6281 64.0324C14.4865 63.8734 14.3128 63.7462 14.1185 63.659C13.9242 63.5719 13.7137 63.5269 13.5007 63.5269C13.2878 63.5269 13.0773 63.5719 12.883 63.659C12.6887 63.7462 12.515 63.8734 12.3733 64.0324C12.2317 64.1913 12.1252 64.3785 12.061 64.5815C11.9968 64.7845 11.9763 64.9988 12.0007 65.2104C12.0007 80.6704 24.4307 93.3604 40.0007 94.1404ZM20.5007 63.4504C20.9407 75.1704 30.1607 84.3504 41.5007 84.3504C52.7607 84.3504 62.0007 75.2904 62.5007 63.7404C62.5442 63.511 62.5357 63.2747 62.4757 63.0491C62.4158 62.8234 62.3059 62.6141 62.1543 62.4365C62.0027 62.259 61.8131 62.1177 61.5996 62.0232C61.3861 61.9287 61.1541 61.8833 60.9207 61.8904H32.6507C32.237 61.8904 31.8402 62.0547 31.5476 62.3473C31.2551 62.6398 31.0907 63.0366 31.0907 63.4504C31.0907 63.8641 31.2551 64.2609 31.5476 64.5535C31.8402 64.846 32.237 65.0104 32.6507 65.0104H59.3607C58.886 69.4291 56.8065 73.5201 53.5165 76.5078C50.2265 79.4955 45.9546 81.1723 41.5107 81.2204C36.7774 81.1565 32.254 79.2559 28.8955 75.9198C25.5371 72.5837 23.6063 68.0732 23.5107 63.3404C23.5167 63.1375 23.4803 62.9356 23.4038 62.7476C23.3273 62.5596 23.2125 62.3896 23.0667 62.2484C22.9208 62.1073 22.7471 61.9981 22.5567 61.9278C22.3663 61.8576 22.1633 61.8278 21.9607 61.8404C21.5539 61.8611 21.1719 62.0421 20.8983 62.3439C20.6246 62.6456 20.4817 63.0435 20.5007 63.4504ZM22.2007 56.4204H61.0007C61.4145 56.4204 61.8113 56.256 62.1038 55.9635C62.3964 55.6709 62.5607 55.2741 62.5607 54.8604C62.5607 54.4466 62.3964 54.0498 62.1038 53.7573C61.8113 53.4647 61.4145 53.3004 61.0007 53.3004H22.2007C21.787 53.3004 21.3902 53.4647 21.0976 53.7573C20.8051 54.0498 20.6407 54.4466 20.6407 54.8604C20.6407 55.2741 20.8051 55.6709 21.0976 55.9635C21.3902 56.256 21.787 56.4204 22.2007 56.4204ZM22.2007 47.8704H61.0007C61.4145 47.8704 61.8113 47.706 62.1038 47.4135C62.3964 47.1209 62.5607 46.7241 62.5607 46.3104C62.5607 45.8966 62.3964 45.4998 62.1038 45.2073C61.8113 44.9147 61.4145 44.7504 61.0007 44.7504H22.2007C21.787 44.7504 21.3902 44.9147 21.0976 45.2073C20.8051 45.4998 20.6407 45.8966 20.6407 46.3104C20.6407 46.7241 20.8051 47.1209 21.0976 47.4135C21.3902 47.706 21.787 47.8704 22.2007 47.8704ZM60.4144 39.1954C60.5997 39.2753 60.7989 39.3178 61.0007 39.3204C61.4039 39.3073 61.7859 39.1366 62.0645 38.8449C62.3431 38.5531 62.4962 38.1637 62.4907 37.7604C62.4907 25.7704 53.0607 16.0104 41.4907 16.0104C29.9207 16.0104 20.4907 25.7604 20.4907 37.7604C20.4854 38.1671 20.6411 38.5595 20.9241 38.8517C21.207 39.144 21.594 39.3125 22.0007 39.3204H50.3307C50.7374 39.3125 51.1245 39.144 51.4074 38.8517C51.6903 38.5595 51.8461 38.1671 51.8407 37.7604C51.8434 37.5599 51.8063 37.3609 51.7318 37.1749C51.6572 36.9888 51.5465 36.8193 51.4062 36.6762C51.2658 36.533 51.0986 36.4191 50.914 36.3408C50.7294 36.2626 50.5312 36.2217 50.3307 36.2204H23.5407C24.3007 26.6604 32.0607 19.1304 41.4907 19.1304C51.4007 19.1304 59.4907 27.4904 59.4907 37.7604C59.4867 37.9621 59.5227 38.1627 59.5966 38.3505C59.6704 38.5383 59.7807 38.7096 59.9211 38.8546C60.0614 38.9996 60.2291 39.1154 60.4144 39.1954ZM8.70083 57.0104C6.3633 56.9788 4.13395 56.0204 2.50262 54.346C0.871297 52.6715 -0.0285427 50.4179 0.000826592 48.0804V39.9404C-0.0150341 38.7826 0.197498 37.633 0.626269 36.5574C1.05504 35.4818 1.69164 34.5013 2.49966 33.6719C3.30767 32.8425 4.27126 32.1805 5.33531 31.7239C6.39936 31.2672 7.543 31.0247 8.70083 31.0104C8.89388 31.013 9.08452 31.0536 9.26187 31.1299C9.43922 31.2062 9.59981 31.3167 9.73446 31.455C9.8691 31.5934 9.97518 31.7569 10.0466 31.9363C10.1181 32.1157 10.1535 32.3073 10.1508 32.5004V55.5004C10.1548 55.6947 10.1205 55.888 10.0497 56.0691C9.97901 56.2502 9.8733 56.4155 9.73865 56.5558C9.604 56.696 9.44304 56.8083 9.26496 56.8863C9.08689 56.9643 8.8952 57.0065 8.70083 57.0104ZM7.24083 34.1904C5.99024 34.5431 4.89014 35.2969 4.10964 36.3357C3.32915 37.3746 2.91147 38.641 2.92083 39.9404V48.0804C2.91147 49.3797 3.32915 50.6462 4.10964 51.685C4.89014 52.7239 5.99024 53.4776 7.24083 53.8304V34.1904ZM11.4508 55.5104V32.8704C11.7905 32.8743 12.1261 32.9452 12.4382 33.0791C12.7504 33.2131 13.0331 33.4073 13.27 33.6507C13.5069 33.8942 13.6935 34.182 13.8189 34.4977C13.9443 34.8134 14.0061 35.1507 14.0008 35.4904V52.9004C14.0061 53.2395 13.9442 53.5764 13.8187 53.8915C13.6931 54.2067 13.5065 54.4938 13.2694 54.7365C13.0324 54.9791 12.7496 55.1724 12.4375 55.3052C12.1254 55.4381 11.79 55.5078 11.4508 55.5104ZM67.0011 35.4904V52.9004C66.9957 53.5839 67.2607 54.2418 67.7384 54.7307C68.2161 55.2196 68.8676 55.4998 69.5511 55.5104V32.8704C68.8667 32.8835 68.2152 33.166 67.7378 33.6565C67.2604 34.147 66.9957 34.8059 67.0011 35.4904ZM72.3211 57.0104C71.9276 57.0051 71.5522 56.8444 71.2768 56.5634C71.0014 56.2824 70.8484 55.9038 70.8511 55.5104V32.5104C70.8484 32.3152 70.8844 32.1214 70.957 31.9402C71.0295 31.7589 71.1373 31.5939 71.2739 31.4544C71.4105 31.315 71.5734 31.204 71.7531 31.1278C71.9328 31.0516 72.1259 31.0117 72.3211 31.0104C73.4776 31.026 74.6197 31.2695 75.682 31.7269C76.7444 32.1843 77.7061 32.8466 78.5123 33.676C79.3184 34.5054 79.9532 35.4855 80.3802 36.5604C80.8073 37.6353 81.0182 38.7839 81.0011 39.9404V48.0804C81.0305 50.4145 80.1334 52.6651 78.5063 54.339C76.8793 56.0129 74.6551 56.9735 72.3211 57.0104ZM73.7711 34.1904V53.8304C75.0176 53.4692 76.1134 52.7135 76.8941 51.6768C77.6748 50.6401 78.0983 49.3782 78.1011 48.0804V39.9404C78.0983 38.6426 77.6748 37.3807 76.8941 36.344C76.1134 35.3072 75.0176 34.5516 73.7711 34.1904Z" fill="white"/>
<path d="M123.931 76.5138H117V33.547H123.931V76.5138Z" fill="white"/>
<path d="M133.746 76.5138V33.547H141.215L162.247 65.8177V33.547H169.118V76.5138H161.709L140.558 44.3646V76.5138H133.746Z" fill="white"/>
<path d="M193.666 39.2597C192.75 39.2597 191.814 39.3407 190.858 39.5028C189.902 39.6648 189.026 39.9687 188.229 40.4144C187.433 40.8195 186.775 41.407 186.258 42.1768C185.74 42.9061 185.481 43.8379 185.481 44.9724C185.481 46.674 186.038 47.9705 187.154 48.8619C188.269 49.7127 189.603 50.361 191.157 50.8066C192.272 51.1308 193.388 51.4346 194.503 51.7182C195.658 52.0018 196.714 52.2449 197.67 52.4475C199.343 52.8122 200.916 53.2578 202.39 53.7845C203.904 54.3112 205.218 55.0203 206.333 55.9116C207.449 56.7624 208.325 57.8564 208.962 59.1934C209.639 60.4899 209.978 62.1105 209.978 64.0552C209.978 66.3646 209.56 68.3296 208.723 69.9503C207.927 71.5709 206.831 72.9079 205.437 73.9613C204.043 75.0147 202.41 75.7845 200.538 76.2707C198.665 76.7569 196.654 77 194.503 77C192.312 77 190.221 76.7772 188.229 76.3315C186.277 75.8453 184.525 75.0958 182.971 74.0829C181.418 73.0295 180.123 71.6925 179.088 70.0718C178.052 68.4512 177.395 66.5064 177.116 64.2376H184.286C184.604 65.453 185.122 66.4659 185.839 67.2762C186.556 68.0866 187.373 68.7348 188.289 69.221C189.245 69.7072 190.261 70.0516 191.336 70.2541C192.412 70.4567 193.467 70.558 194.503 70.558C195.618 70.558 196.694 70.477 197.729 70.3149C198.765 70.1123 199.661 69.7882 200.418 69.3425C201.175 68.8969 201.792 68.3094 202.27 67.5801C202.748 66.8508 202.987 65.8987 202.987 64.7238C202.987 63.1031 202.569 61.9282 201.733 61.1989C200.896 60.4291 199.781 59.8619 198.387 59.4972C196.475 58.93 194.503 58.4438 192.471 58.0387C190.48 57.593 188.588 57.0258 186.795 56.337C185.6 55.8913 184.505 55.3646 183.509 54.7569C182.513 54.1492 181.637 53.4199 180.88 52.5691C180.123 51.7182 179.526 50.7256 179.088 49.5912C178.689 48.4162 178.49 47.0589 178.49 45.5193C178.49 43.1694 178.928 41.2044 179.805 39.6243C180.681 38.0037 181.816 36.7072 183.21 35.7348C184.644 34.7624 186.258 34.0737 188.05 33.6685C189.842 33.2228 191.675 33 193.547 33C195.539 33 197.431 33.2431 199.223 33.7293C201.016 34.175 202.609 34.884 204.003 35.8564C205.397 36.8287 206.513 38.0847 207.349 39.6243C208.225 41.1639 208.743 43.0276 208.903 45.2155H202.091C201.932 44.1215 201.593 43.2099 201.075 42.4807C200.597 41.7514 199.98 41.1639 199.223 40.7182C198.506 40.232 197.67 39.8877 196.714 39.6851C195.758 39.442 194.742 39.3002 193.666 39.2597Z" fill="white"/>
<path d="M226.499 76.5138V39.8674H213.115V33.547H246.874V39.8674H233.43V76.5138H226.499Z" fill="white"/>
<path d="M277.717 76.5138L274.61 67.8232H255.43L252.263 76.5138H244.735L260.748 33.547H269.352L285.305 76.5138H277.717ZM272.459 61.5028L265.05 40.4751L257.581 61.5028H272.459Z" fill="white"/>
<path d="M304.238 39.2597C303.322 39.2597 302.386 39.3407 301.43 39.5028C300.474 39.6648 299.597 39.9687 298.801 40.4144C298.004 40.8195 297.347 41.407 296.829 42.1768C296.311 42.9061 296.052 43.8379 296.052 44.9724C296.052 46.674 296.61 47.9705 297.725 48.8619C298.841 49.7127 300.175 50.361 301.728 50.8066C302.844 51.1308 303.959 51.4346 305.074 51.7182C306.23 52.0018 307.285 52.2449 308.241 52.4475C309.914 52.8122 311.488 53.2578 312.961 53.7845C314.475 54.3112 315.789 55.0203 316.905 55.9116C318.02 56.7624 318.896 57.8564 319.534 59.1934C320.211 60.4899 320.55 62.1105 320.55 64.0552C320.55 66.3646 320.131 68.3296 319.295 69.9503C318.498 71.5709 317.403 72.9079 316.009 73.9613C314.614 75.0147 312.981 75.7845 311.109 76.2707C309.237 76.7569 307.225 77 305.074 77C302.884 77 300.792 76.7772 298.801 76.3315C296.849 75.8453 295.096 75.0958 293.543 74.0829C291.989 73.0295 290.695 71.6925 289.659 70.0718C288.623 68.4512 287.966 66.5064 287.687 64.2376H294.857C295.176 65.453 295.694 66.4659 296.411 67.2762C297.128 68.0866 297.944 68.7348 298.86 69.221C299.816 69.7072 300.832 70.0516 301.908 70.2541C302.983 70.4567 304.039 70.558 305.074 70.558C306.19 70.558 307.265 70.477 308.301 70.3149C309.337 70.1123 310.233 69.7882 310.99 69.3425C311.746 68.8969 312.364 68.3094 312.842 67.5801C313.32 66.8508 313.559 65.8987 313.559 64.7238C313.559 63.1031 313.141 61.9282 312.304 61.1989C311.468 60.4291 310.352 59.8619 308.958 59.4972C307.046 58.93 305.074 58.4438 303.043 58.0387C301.051 57.593 299.159 57.0258 297.367 56.337C296.172 55.8913 295.076 55.3646 294.081 54.7569C293.085 54.1492 292.208 53.4199 291.452 52.5691C290.695 51.7182 290.097 50.7256 289.659 49.5912C289.261 48.4162 289.062 47.0589 289.062 45.5193C289.062 43.1694 289.5 41.2044 290.376 39.6243C291.252 38.0037 292.388 36.7072 293.782 35.7348C295.216 34.7624 296.829 34.0737 298.621 33.6685C300.414 33.2228 302.246 33 304.118 33C306.11 33 308.002 33.2431 309.795 33.7293C311.587 34.175 313.18 34.884 314.575 35.8564C315.969 36.8287 317.084 38.0847 317.921 39.6243C318.797 41.1639 319.315 43.0276 319.474 45.2155H312.663C312.503 44.1215 312.165 43.2099 311.647 42.4807C311.169 41.7514 310.551 41.1639 309.795 40.7182C309.078 40.232 308.241 39.8877 307.285 39.6851C306.329 39.442 305.313 39.3002 304.238 39.2597Z" fill="white"/>
<path d="M328.632 33.547H357.969V39.8674H335.563V52.0829H355.4V58.4641H335.563V70.2541H357.969V76.5138H328.632V33.547Z" fill="white"/>
<path d="M372.381 60.7735V76.5138H365.45V33.547H381.881C384.072 33.547 386.124 33.7698 388.036 34.2155C389.948 34.6611 391.601 35.4107 392.995 36.4641C394.429 37.5175 395.544 38.9153 396.341 40.6575C397.177 42.3996 397.595 44.547 397.595 47.0994C397.595 48.8416 397.337 50.442 396.819 51.9006C396.341 53.3186 395.683 54.5746 394.847 55.6685C394.01 56.7219 393.035 57.6133 391.919 58.3425C390.804 59.0313 389.609 59.5378 388.334 59.8619L397.476 76.5138H389.768C388.374 73.8803 386.96 71.267 385.526 68.674C384.132 66.0405 382.718 63.407 381.284 60.7735H372.381ZM380.925 54.6354C382.28 54.6354 383.554 54.5138 384.749 54.2707C385.944 54.0276 386.98 53.6225 387.856 53.0552C388.733 52.488 389.41 51.7182 389.888 50.7459C390.406 49.733 390.665 48.4567 390.665 46.9171C390.665 45.5396 390.445 44.4052 390.007 43.5138C389.609 42.6225 389.011 41.9134 388.215 41.3867C387.418 40.8195 386.462 40.4346 385.347 40.232C384.232 39.9889 382.997 39.8674 381.642 39.8674H372.381V54.6354H380.925Z" fill="white"/>
<path d="M408.647 33.547L421.254 68.9779L433.802 33.547H441.27L425.377 76.5138H416.952L400.999 33.547H408.647Z" fill="white"/>
<path d="M453.661 76.5138H446.73V33.547H453.661V76.5138Z" fill="white"/>
<path d="M481.043 39.3204C478.812 39.3204 476.88 39.7459 475.247 40.5967C473.654 41.4475 472.34 42.582 471.304 44C470.268 45.418 469.491 47.0792 468.974 48.9834C468.496 50.8471 468.257 52.8122 468.257 54.8785C468.257 56.9853 468.516 58.9908 469.033 60.895C469.551 62.7993 470.328 64.4807 471.364 65.9392C472.439 67.3573 473.793 68.4917 475.427 69.3425C477.06 70.1934 478.992 70.6188 481.222 70.6188C483.971 70.6188 486.261 70.011 488.093 68.7956C489.966 67.5801 491.141 65.9392 491.619 63.8729H498.55C498.231 65.9392 497.554 67.7827 496.518 69.4033C495.522 71.0239 494.268 72.4015 492.754 73.5359C491.24 74.6298 489.488 75.4807 487.496 76.0884C485.504 76.6556 483.373 76.9392 481.103 76.9392C477.797 76.9392 474.889 76.3923 472.379 75.2983C469.91 74.2044 467.838 72.6851 466.165 70.7403C464.492 68.7956 463.238 66.4862 462.401 63.8122C461.565 61.1381 461.146 58.2007 461.146 55C461.146 51.8803 461.565 48.9834 462.401 46.3094C463.278 43.5948 464.552 41.2652 466.225 39.3204C467.898 37.3352 469.969 35.7956 472.439 34.7017C474.949 33.5672 477.856 33 481.163 33C485.823 33 489.667 34.1142 492.694 36.3425C495.721 38.5709 497.554 41.8527 498.191 46.1878H491.38C490.862 44.081 489.707 42.4199 487.914 41.2044C486.122 39.9484 483.831 39.3204 481.043 39.3204Z" fill="white"/>
<path d="M505.663 33.547H535V39.8674H512.594V52.0829H532.431V58.4641H512.594V70.2541H535V76.5138H505.663V33.547Z" fill="white"/>
</svg>
