<svg width="405" height="111" viewBox="0 0 405 111" fill="none" xmlns="http://www.w3.org/2000/svg">
<g clip-path="url(#clip0_637_898)">
<path fill-rule="evenodd" clip-rule="evenodd" d="M69.6207 28.0104H69.5107C69.1597 28.0036 68.8241 27.8651 68.5703 27.6225C68.3166 27.3799 68.1632 27.0507 68.1407 26.7004C67.5307 19.4704 62.0007 3.43038 41.7107 2.94038C33.9207 2.76038 27.4707 5.16038 22.5607 10.0904C18.3376 14.4002 15.6314 19.9671 14.8507 25.9504C14.8282 26.2981 14.676 26.6247 14.4241 26.8654C14.1722 27.1062 13.8391 27.2436 13.4907 27.2504H13.3807C13.1876 27.247 12.9972 27.2039 12.8213 27.1238C12.6455 27.0438 12.488 26.9284 12.3586 26.785C12.2292 26.6415 12.1306 26.473 12.0691 26.2898C12.0075 26.1067 11.9843 25.9129 12.0007 25.7204C12.8378 19.0349 15.8531 12.811 20.5807 8.01038C26.0607 2.50038 33.1607 -0.189616 41.7707 0.0103835C62.1007 0.510384 70.2807 15.9204 71.0007 26.5004C71.0158 26.6916 70.9914 26.8839 70.9291 27.0653C70.8668 27.2467 70.7679 27.4133 70.6385 27.5549C70.5091 27.6965 70.352 27.81 70.1769 27.8884C70.0018 27.9667 69.8125 28.0082 69.6207 28.0104ZM40.0007 94.1404V110.01H43.0007V94.1404C58.5707 93.3604 71.0007 80.6704 71.0007 65.2104C71.0062 64.8044 70.8521 64.4124 70.5716 64.1188C70.2911 63.8252 69.9066 63.6534 69.5007 63.6404C69.2989 63.6443 69.0999 63.688 68.9151 63.7692C68.7303 63.8503 68.5634 63.9672 68.4239 64.1132C68.2845 64.2591 68.1753 64.4312 68.1027 64.6195C68.0301 64.8078 67.9954 65.0086 68.0007 65.2104C68.0007 79.4604 56.1107 91.0604 41.5007 91.0604C26.8907 91.0604 15.0007 79.4604 15.0007 65.2104C15.0252 64.9988 15.0046 64.7845 14.9404 64.5815C14.8762 64.3785 14.7698 64.1913 14.6281 64.0324C14.4865 63.8734 14.3128 63.7462 14.1185 63.659C13.9242 63.5719 13.7137 63.5269 13.5007 63.5269C13.2878 63.5269 13.0773 63.5719 12.883 63.659C12.6887 63.7462 12.515 63.8734 12.3733 64.0324C12.2317 64.1913 12.1252 64.3785 12.061 64.5815C11.9968 64.7845 11.9763 64.9988 12.0007 65.2104C12.0007 80.6704 24.4307 93.3604 40.0007 94.1404ZM20.5007 63.4504C20.9407 75.1704 30.1607 84.3504 41.5007 84.3504C52.7607 84.3504 62.0007 75.2904 62.5007 63.7404C62.5442 63.511 62.5357 63.2747 62.4757 63.0491C62.4158 62.8234 62.3059 62.6141 62.1543 62.4365C62.0027 62.259 61.8131 62.1177 61.5996 62.0232C61.3861 61.9287 61.1541 61.8833 60.9207 61.8904H32.6507C32.237 61.8904 31.8402 62.0547 31.5476 62.3473C31.2551 62.6398 31.0907 63.0366 31.0907 63.4504C31.0907 63.8641 31.2551 64.2609 31.5476 64.5535C31.8402 64.846 32.237 65.0104 32.6507 65.0104H59.3607C58.886 69.4291 56.8065 73.5201 53.5165 76.5078C50.2265 79.4955 45.9546 81.1723 41.5107 81.2204C36.7774 81.1565 32.254 79.2559 28.8955 75.9198C25.5371 72.5837 23.6063 68.0732 23.5107 63.3404C23.5167 63.1375 23.4803 62.9356 23.4038 62.7476C23.3273 62.5596 23.2125 62.3896 23.0667 62.2484C22.9208 62.1073 22.7471 61.9981 22.5567 61.9278C22.3663 61.8576 22.1633 61.8278 21.9607 61.8404C21.5539 61.8611 21.1719 62.0421 20.8983 62.3439C20.6246 62.6456 20.4817 63.0435 20.5007 63.4504ZM22.2007 56.4204H61.0007C61.4145 56.4204 61.8113 56.256 62.1038 55.9635C62.3964 55.6709 62.5607 55.2741 62.5607 54.8604C62.5607 54.4466 62.3964 54.0498 62.1038 53.7573C61.8113 53.4647 61.4145 53.3004 61.0007 53.3004H22.2007C21.787 53.3004 21.3902 53.4647 21.0976 53.7573C20.8051 54.0498 20.6407 54.4466 20.6407 54.8604C20.6407 55.2741 20.8051 55.6709 21.0976 55.9635C21.3902 56.256 21.787 56.4204 22.2007 56.4204ZM22.2007 47.8704H61.0007C61.4145 47.8704 61.8113 47.706 62.1038 47.4135C62.3964 47.1209 62.5607 46.7241 62.5607 46.3104C62.5607 45.8966 62.3964 45.4998 62.1038 45.2073C61.8113 44.9147 61.4145 44.7504 61.0007 44.7504H22.2007C21.787 44.7504 21.3902 44.9147 21.0976 45.2073C20.8051 45.4998 20.6407 45.8966 20.6407 46.3104C20.6407 46.7241 20.8051 47.1209 21.0976 47.4135C21.3902 47.706 21.787 47.8704 22.2007 47.8704ZM60.4144 39.1954C60.5997 39.2753 60.7989 39.3178 61.0007 39.3204C61.4039 39.3073 61.7859 39.1366 62.0645 38.8449C62.3431 38.5531 62.4962 38.1637 62.4907 37.7604C62.4907 25.7704 53.0607 16.0104 41.4907 16.0104C29.9207 16.0104 20.4907 25.7604 20.4907 37.7604C20.4854 38.1671 20.6411 38.5595 20.9241 38.8517C21.207 39.144 21.594 39.3125 22.0007 39.3204H50.3307C50.7374 39.3125 51.1245 39.144 51.4074 38.8517C51.6903 38.5595 51.8461 38.1671 51.8407 37.7604C51.8434 37.5599 51.8063 37.3609 51.7318 37.1749C51.6572 36.9888 51.5465 36.8193 51.4062 36.6762C51.2658 36.533 51.0986 36.4191 50.914 36.3408C50.7294 36.2626 50.5312 36.2217 50.3307 36.2204H23.5407C24.3007 26.6604 32.0607 19.1304 41.4907 19.1304C51.4007 19.1304 59.4907 27.4904 59.4907 37.7604C59.4867 37.9621 59.5227 38.1627 59.5966 38.3505C59.6704 38.5383 59.7807 38.7096 59.9211 38.8546C60.0614 38.9996 60.2291 39.1154 60.4144 39.1954ZM8.70083 57.0104C6.3633 56.9788 4.13395 56.0204 2.50262 54.346C0.871297 52.6715 -0.0285427 50.4179 0.000826592 48.0804V39.9404C-0.0150341 38.7826 0.197498 37.633 0.626269 36.5574C1.05504 35.4818 1.69164 34.5013 2.49966 33.6719C3.30767 32.8425 4.27126 32.1805 5.33531 31.7239C6.39936 31.2672 7.543 31.0247 8.70083 31.0104C8.89388 31.013 9.08452 31.0536 9.26187 31.1299C9.43922 31.2062 9.59981 31.3167 9.73446 31.455C9.8691 31.5934 9.97518 31.7569 10.0466 31.9363C10.1181 32.1157 10.1535 32.3073 10.1508 32.5004V55.5004C10.1548 55.6947 10.1205 55.888 10.0497 56.0691C9.97901 56.2502 9.8733 56.4155 9.73865 56.5558C9.604 56.696 9.44304 56.8083 9.26496 56.8863C9.08689 56.9643 8.8952 57.0065 8.70083 57.0104ZM7.24083 34.1904C5.99024 34.5431 4.89014 35.2969 4.10964 36.3357C3.32915 37.3746 2.91147 38.641 2.92083 39.9404V48.0804C2.91147 49.3797 3.32915 50.6462 4.10964 51.685C4.89014 52.7239 5.99024 53.4776 7.24083 53.8304V34.1904ZM11.4508 55.5104V32.8704C11.7905 32.8743 12.1261 32.9452 12.4382 33.0791C12.7504 33.2131 13.0331 33.4073 13.27 33.6507C13.5069 33.8942 13.6935 34.182 13.8189 34.4977C13.9443 34.8134 14.0061 35.1507 14.0008 35.4904V52.9004C14.0061 53.2395 13.9442 53.5764 13.8187 53.8915C13.6931 54.2067 13.5065 54.4938 13.2694 54.7365C13.0324 54.9791 12.7496 55.1724 12.4375 55.3052C12.1254 55.4381 11.79 55.5078 11.4508 55.5104ZM67.0011 35.4904V52.9004C66.9957 53.5839 67.2607 54.2418 67.7384 54.7307C68.2161 55.2196 68.8676 55.4998 69.5511 55.5104V32.8704C68.8667 32.8835 68.2152 33.166 67.7378 33.6565C67.2604 34.147 66.9957 34.8059 67.0011 35.4904ZM72.3211 57.0104C71.9276 57.0051 71.5522 56.8444 71.2768 56.5634C71.0014 56.2824 70.8484 55.9038 70.8511 55.5104V32.5104C70.8484 32.3152 70.8844 32.1214 70.957 31.9402C71.0295 31.7589 71.1373 31.5939 71.2739 31.4544C71.4105 31.315 71.5734 31.204 71.7531 31.1278C71.9328 31.0516 72.1259 31.0117 72.3211 31.0104C73.4776 31.026 74.6197 31.2695 75.682 31.7269C76.7444 32.1843 77.7061 32.8466 78.5123 33.676C79.3184 34.5054 79.9532 35.4855 80.3802 36.5604C80.8073 37.6353 81.0182 38.7839 81.0011 39.9404V48.0804C81.0305 50.4145 80.1334 52.6651 78.5063 54.339C76.8793 56.0129 74.6551 56.9735 72.3211 57.0104ZM73.7711 34.1904V53.8304C75.0176 53.4692 76.1134 52.7135 76.8941 51.6768C77.6748 50.6401 78.0983 49.3782 78.1011 48.0804V39.9404C78.0983 38.6426 77.6748 37.3807 76.8941 36.344C76.1134 35.3072 75.0176 34.5516 73.7711 34.1904ZM110.981 33.8304V70.0104H117.941V33.8304H131.441V27.5904H97.541V33.8304H110.981ZM159.293 61.4304L162.413 70.0104H170.033L154.013 27.5904H145.373L129.293 70.0104H136.853L140.033 61.4304H159.293ZM149.693 34.4304L157.133 55.1904H142.193L149.693 34.4304ZM175.28 27.5904H182.18V63.8304H204.26V70.0104H175.28V27.5904ZM211.257 27.5904V70.0104H218.217V52.3104H224.277L236.757 70.0104H244.917L229.617 48.1704L244.737 27.5904H236.697L223.617 46.1304H218.217V27.5904H211.257ZM250.398 27.5904H279.858V33.8304H257.358V45.8904H277.278V52.1904H257.358V63.8304H279.858V70.0104H250.398V27.5904ZM312.75 61.4304L315.87 70.0104H323.49L307.47 27.5904H298.83L282.75 70.0104H290.31L293.49 61.4304H312.75ZM303.15 34.4304L310.59 55.1904H295.65L303.15 34.4304ZM335.697 54.4704V70.0104H328.737V27.5904H345.237C347.437 27.5904 349.497 27.8104 351.417 28.2504C353.337 28.6904 354.997 29.4304 356.397 30.4704C357.837 31.5104 358.957 32.8904 359.757 34.6104C360.597 36.3304 361.017 38.4504 361.017 40.9704C361.017 42.6904 360.757 44.2704 360.237 45.7104C359.757 47.1104 359.097 48.3504 358.257 49.4304C357.417 50.4704 356.437 51.3504 355.317 52.0704C354.197 52.7504 352.997 53.2504 351.717 53.5704L360.897 70.0104H353.157C351.757 67.4104 350.337 64.8304 348.897 62.2704C347.497 59.6704 346.077 57.0704 344.637 54.4704H335.697ZM344.277 48.4104C345.637 48.4104 346.917 48.2904 348.117 48.0504C349.317 47.8104 350.357 47.4104 351.237 46.8504C352.117 46.2904 352.797 45.5304 353.277 44.5704C353.797 43.5704 354.057 42.3104 354.057 40.7904C354.057 39.4304 353.837 38.3104 353.397 37.4304C352.997 36.5504 352.397 35.8504 351.597 35.3304C350.797 34.7704 349.837 34.3904 348.717 34.1904C347.597 33.9504 346.357 33.8304 344.997 33.8304H335.697V48.4104H344.277ZM368.816 27.5904V70.0104H375.656V38.2704L396.896 70.0104H404.336V27.5904H397.436V59.4504L376.316 27.5904H368.816Z" fill="white"/>
</g>
<defs>
<clipPath id="clip0_637_898">
<rect width="405" height="111" fill="white"/>
</clipPath>
</defs>
</svg>
